<?xml version="1.0" encoding="UTF-8"?>
<svg width="190px" height="51px" viewBox="0 0 190 51" version="1.1" xmlns="http://www.w3.org/2000/svg" xmlns:xlink="http://www.w3.org/1999/xlink">
    <!-- Generator: sketchtool 42 (36781) - http://www.bohemiancoding.com/sketch -->
    <title>F1E9300B-D893-4B94-B649-A7A0A0860569</title>
    <desc>Created with sketchtool.</desc>
    <defs>
        <filter x="-50%" y="-50%" width="200%" height="200%" filterUnits="objectBoundingBox" id="filter-1">
            <feOffset dx="0" dy="1" in="SourceAlpha" result="shadowOffsetOuter1"></feOffset>
            <feGaussianBlur stdDeviation="3" in="shadowOffsetOuter1" result="shadowBlurOuter1"></feGaussianBlur>
            <feColorMatrix values="0 0 0 0 0   0 0 0 0 0   0 0 0 0 0  0 0 0 0.2 0" type="matrix" in="shadowBlurOuter1" result="shadowMatrixOuter1"></feColorMatrix>
            <feMerge>
                <feMergeNode in="shadowMatrixOuter1"></feMergeNode>
                <feMergeNode in="SourceGraphic"></feMergeNode>
            </feMerge>
        </filter>
    </defs>
    <g id="Page-1" stroke="none" stroke-width="1" fill="none" fill-rule="evenodd">
        <g id="home-desktop" transform="translate(-233.000000, -6159.000000)" fill="#FFFFFF">
            <g id="Footer" transform="translate(-3.000000, 6117.000000)">
                <g id="Group-16" transform="translate(240.000000, 48.000000)">
                    <g id="logo" filter="url(#filter-1)" transform="translate(3.000000, 0.000000)">
                        <g id="Group" stroke="#FFFFFF">
                            <polygon id="Shape" points="21.1493771 1.46052632 21.1493771 3.57017544 2.56207731 3.57017544 2.56207731 18.3377193 18.6525756 18.3377193 18.6525756 20.4473684 2.56207731 20.4473684 2.56207731 36.5780702 0 36.5780702 0 1.46052632"></polygon>
                            <path d="M25.8329197,36.5618421 L25.8329197,11.8789474 L27.0731609,11.8789474 C27.3505833,11.8789474 27.5627298,11.9438596 27.6932815,12.0574561 C27.8238332,12.1710526 27.8891091,12.3657895 27.9054281,12.6578947 L28.1012556,17.8671053 C28.9008848,15.8710526 29.9616175,14.2969298 31.2997725,13.1609649 C32.6379276,12.025 34.2698239,11.4570175 36.2117806,11.4570175 C36.962453,11.4570175 37.6478494,11.5381579 38.284289,11.7004386 C38.9207286,11.8627193 39.5082113,12.0899123 40.079375,12.3820175 L39.7529958,14.0210526 C39.7040389,14.2807018 39.5408492,14.4105263 39.2471079,14.4105263 C39.1491941,14.4105263 39.0023234,14.3780702 38.8228148,14.3131579 C38.6433062,14.2482456 38.4148407,14.1671053 38.1374183,14.0859649 C37.859996,14.0048246 37.5336167,13.9236842 37.1256426,13.8587719 C36.7176685,13.7938596 36.2607375,13.7614035 35.7548496,13.7614035 C33.8781688,13.7614035 32.3278672,14.345614 31.1202639,15.497807 C29.9126606,16.65 28.9335228,18.3214912 28.1828504,20.5122807 L28.1828504,36.5618421 L25.8329197,36.5618421 L25.8329197,36.5618421 L25.8329197,36.5618421 Z" id="Shape"></path>
                            <path d="M55.0112269,11.4732456 C56.4146578,11.4732456 57.7038559,11.7166667 58.8951403,12.1872807 C60.0864246,12.6741228 61.1145193,13.3719298 61.9957434,14.2807018 C62.8606485,15.2057018 63.5460449,16.3254386 64.0356139,17.6723684 C64.5251828,19.0192982 64.7699672,20.5447368 64.7699672,22.2811404 C64.7699672,22.6381579 64.7210103,22.897807 64.6067776,23.0276316 C64.4925448,23.1574561 64.3293552,23.2223684 64.1008897,23.2223684 L46.1663485,23.2223684 L46.1663485,23.6929825 C46.1663485,25.5429825 46.3784951,27.1820175 46.8191071,28.5776316 C47.2434001,29.9894737 47.8635208,31.1578947 48.66315,32.1153509 C49.4627792,33.072807 50.4255981,33.7868421 51.5516066,34.2574561 C52.6776151,34.7442982 53.9504942,34.9714912 55.3376062,34.9714912 C56.5941664,34.9714912 57.671218,34.8416667 58.58508,34.5657895 C59.4989419,34.2899123 60.2659332,33.9815789 60.8860539,33.6407895 C61.5061745,33.3 62.0120624,32.9916667 62.3710796,32.7157895 C62.7300968,32.4399123 63.0075191,32.3100877 63.1707088,32.3100877 C63.3828553,32.3100877 63.5623639,32.3912281 63.6765967,32.5535088 L64.3293552,33.3486842 C63.9377001,33.8517544 63.3991743,34.3061404 62.7464157,34.7442982 C62.0936572,35.1824561 61.3593038,35.5394737 60.5433556,35.847807 C59.7437264,36.1561404 58.8788213,36.3995614 57.9486404,36.5780702 C57.0184594,36.7565789 56.1045975,36.8539474 55.1744165,36.8539474 C53.4772443,36.8539474 51.9269427,36.5618421 50.5398308,35.9776316 C49.1363999,35.3934211 47.9451156,34.5333333 46.9496588,33.4135965 C45.954202,32.2938596 45.1708917,30.9144737 44.6323659,29.2754386 C44.0775212,27.6526316 43.8164177,25.7864035 43.8164177,23.6767544 C43.8164177,21.9078947 44.0612022,20.2688596 44.583409,18.7758772 C45.0892969,17.2828947 45.8236503,15.9846491 46.7864691,14.9135965 C47.749288,13.8263158 48.9079344,12.9824561 50.2950464,12.3657895 C51.6658393,11.7815789 53.2487788,11.4732456 55.0112269,11.4732456 L55.0112269,11.4732456 Z M55.0438648,13.2421053 C53.7709856,13.2421053 52.6123392,13.4368421 51.6005635,13.8425439 C50.5887877,14.2320175 49.7075637,14.8162281 48.9732103,15.5627193 C48.2388569,16.3092105 47.6350553,17.2017544 47.1781243,18.2403509 C46.7211933,19.2789474 46.411133,20.4473684 46.2642623,21.745614 L62.599545,21.745614 C62.599545,20.4311404 62.4200364,19.2302632 62.0447003,18.1916667 C61.6856831,17.1368421 61.1634762,16.2605263 60.4943987,15.5302632 C59.8253212,14.8 59.025692,14.2482456 58.095511,13.8587719 C57.197968,13.4368421 56.1698733,13.2421053 55.0438648,13.2421053 L55.0438648,13.2421053 Z" id="Shape"></path>
                            <path d="M77.9067331,36.9513158 C76.2258798,36.9513158 74.9203627,36.4807018 73.9901818,35.5557018 C73.0600008,34.6307018 72.5867509,33.2026316 72.5867509,31.2714912 L72.5867509,14.3942982 L69.0292168,14.3942982 C68.8497082,14.3942982 68.7028375,14.345614 68.5886048,14.2482456 C68.474372,14.1508772 68.4090962,14.0048246 68.4090962,13.8263158 L68.4090962,12.9013158 L72.6520267,12.6092105 L73.2395094,3.78114035 C73.2558284,3.63508772 73.3211042,3.50526316 73.419018,3.39166667 C73.5332508,3.27807018 73.6638025,3.21315789 73.8433111,3.21315789 L74.9530006,3.21315789 L74.9530006,12.6416667 L82.7697843,12.6416667 L82.7697843,14.3942982 L74.9530006,14.3942982 L74.9530006,31.1578947 C74.9530006,31.8394737 75.0345954,32.4236842 75.214104,32.9105263 C75.3936126,33.3973684 75.6220781,33.8030702 75.9321385,34.1114035 C76.2421988,34.4197368 76.601216,34.6631579 77.025509,34.8092105 C77.4334831,34.9552632 77.8904141,35.0364035 78.379983,35.0364035 C78.9837847,35.0364035 79.4896726,34.9552632 79.9302846,34.7767544 C80.3545776,34.5982456 80.7299138,34.4197368 81.0562931,34.2087719 C81.3663534,33.997807 81.6274568,33.8192982 81.8232844,33.6407895 C82.0191119,33.4622807 82.1823016,33.3811404 82.2965343,33.3811404 C82.427086,33.3811404 82.5576377,33.4622807 82.6881895,33.6245614 L83.340948,34.6631579 C82.7045084,35.3609649 81.9048792,35.9127193 80.9257414,36.3346491 C79.9629225,36.7403509 78.9511468,36.9513158 77.9067331,36.9513158 L77.9067331,36.9513158 Z" id="Shape"></path>
                            <polygon id="Shape" points="94.0788262 32.5210526 109.549204 32.5210526 109.549204 36.5618421 89.2320939 36.5618421 89.2320939 1.00614035 94.0788262 1.00614035"></polygon>
                            <polygon id="Shape" points="119.128436 11.4245614 119.128436 36.5618421 114.689677 36.5618421 114.689677 11.4245614"></polygon>
                            <path d="M126.945219,36.5618421 L126.945219,11.4245614 L129.588891,11.4245614 C130.225331,11.4245614 130.616986,11.7328947 130.780176,12.3495614 L131.122874,15.0758772 C132.216245,13.875 133.440167,12.8850877 134.81096,12.1548246 C136.165434,11.4083333 137.732054,11.0350877 139.510821,11.0350877 C140.897933,11.0350877 142.105537,11.2622807 143.166269,11.7166667 C144.227002,12.1710526 145.108226,12.8201754 145.809941,13.647807 C146.511657,14.4754386 147.050183,15.4815789 147.425519,16.6662281 C147.784536,17.8346491 147.980364,19.1328947 147.980364,20.5609649 L147.980364,36.5618421 L143.541605,36.5618421 L143.541605,20.5609649 C143.541605,18.6622807 143.100993,17.1855263 142.236088,16.1307018 C141.371183,15.0758772 140.033028,14.5565789 138.237942,14.5565789 C136.916106,14.5565789 135.692184,14.8649123 134.566175,15.497807 C133.423848,16.1307018 132.379434,16.9745614 131.416615,18.045614 L131.416615,36.5618421 L126.945219,36.5618421 L126.945219,36.5618421 Z" id="Shape"></path>
                            <path d="M159.305724,0.0162280702 L159.305724,21.5184211 L160.448052,21.5184211 C160.774431,21.5184211 161.051854,21.4697368 161.264,21.3885965 C161.476147,21.2912281 161.720931,21.1127193 161.982034,20.8368421 L169.962008,12.3333333 C170.206792,12.0736842 170.467896,11.8464912 170.71268,11.6842105 C170.957465,11.5219298 171.300163,11.4407895 171.708137,11.4407895 L175.75524,11.4407895 L166.453431,21.2912281 C166.224965,21.5671053 165.9965,21.8267544 165.768034,22.0377193 C165.539569,22.2486842 165.294784,22.4434211 165.001043,22.6057018 C165.294784,22.8004386 165.572206,23.0276316 165.816991,23.2872807 C166.061775,23.5469298 166.290241,23.8390351 166.502387,24.1635965 L176.37536,36.5618421 L172.377214,36.5618421 C172.018197,36.5618421 171.708137,36.4969298 171.447033,36.3508772 C171.18593,36.2048246 170.941146,35.9938596 170.71268,35.7017544 L162.406328,25.4131579 C162.161543,25.0723684 161.90044,24.8451754 161.655655,24.7315789 C161.410871,24.6179825 161.035535,24.5692982 160.529647,24.5692982 L159.289405,24.5692982 L159.289405,36.5780702 L154.818009,36.5780702 L154.818009,0.0162280702 L159.305724,0.0162280702 L159.305724,0.0162280702 Z" id="Shape"></path>
                        </g>
                        <path d="M114.900476,1.55347611 C114.263942,2.16673369 113.93052,3.00592828 113.93052,3.84512287 L113.915364,3.86126123 C113.93052,5.10391475 113.445542,6.36270664 112.490742,7.28259301 C111.520787,8.20247939 110.293186,8.57366161 109.126209,8.42841639 L109.111053,8.44455475 C108.322964,8.36386296 107.51972,8.62207668 106.883186,9.21919591 C105.685897,10.3650193 105.594964,12.3338989 106.671009,13.6088291 C107.747053,14.8837594 109.596031,14.9805895 110.79332,13.8347661 C111.414698,13.2376469 111.74812,12.4145907 111.763275,11.5753961 L111.778431,11.5592577 C111.763275,10.3004659 112.233098,9.02553562 113.203053,8.10564924 C114.173009,7.16962451 115.43092,6.79844229 116.613053,6.95982586 L116.628209,6.9436875 C117.401142,7.00824093 118.189231,6.75002721 118.810609,6.15290799 C120.007898,5.00708461 120.098831,3.038205 119.022787,1.76327476 C117.946742,0.520621233 116.097764,0.40765273 114.900476,1.55347611 L114.900476,1.55347611 Z" id="Shape"></path>
                    </g>
                </g>
            </g>
        </g>
    </g>
</svg>